<?xml version="1.0" standalone="no"?>
<!DOCTYPE svg PUBLIC "-//W3C//DTD SVG 20010904//EN"
 "http://www.w3.org/TR/2001/REC-SVG-20010904/DTD/svg10.dtd">
<svg version="1.0" xmlns="http://www.w3.org/2000/svg"
 width="1083.000000pt" height="1083.000000pt" viewBox="0 0 1083.000000 1083.000000"
 preserveAspectRatio="xMidYMid meet">
<metadata>
Created by potrace 1.11, written by Peter Selinger 2001-2013
</metadata>
<g transform="translate(0.000000,1083.000000) scale(0.100000,-0.100000)"
fill="#000000" stroke="none">
<path d="M3070 9471 l-2335 -1349 0 -2707 0 -2707 1895 -1094 c1042 -602 2021
-1167 2175 -1256 154 -89 354 -204 444 -256 l164 -96 41 24 c23 12 316 181
651 375 1269 732 3421 1975 3700 2136 l290 168 0 2706 0 2707 -935 540 c-514
296 -1198 691 -1520 877 -1895 1094 -2220 1281 -2227 1281 -4 0 -1059 -607
-2343 -1349z m3050 -62 c2337 -626 2492 -668 2496 -672 2 -1 195 -718 429
-1592 618 -2307 648 -2420 709 -2645 l55 -205 -1629 -1629 -1628 -1629 -589
157 c-323 87 -1301 349 -2173 582 -872 234 -1607 431 -1635 439 l-50 14 -129
483 c-71 266 -338 1261 -593 2213 -254 951 -463 1736 -463 1745 0 8 730 745
1622 1638 1460 1460 1626 1622 1648 1617 14 -4 882 -236 1930 -516z"/>
<path d="M2597 8242 l-1589 -1589 212 -789 c374 -1395 494 -1842 726 -2709
125 -467 228 -852 230 -854 4 -5 136 -40 1464 -396 569 -153 1451 -389 1960
-526 l925 -248 1595 1594 1594 1594 -86 323 c-88 325 -506 1885 -878 3272
-110 413 -202 751 -204 753 -4 5 -269 76 -2201 593 -264 71 -851 228 -1304
349 -453 122 -831 221 -840 221 -9 0 -731 -715 -1604 -1588z m2546 1143 c463
-124 984 -264 1157 -310 1691 -454 2103 -564 2104 -567 2 -2 22 -75 45 -163
24 -88 272 -1015 552 -2060 l509 -1900 -1508 -1508 c-829 -829 -1512 -1507
-1518 -1507 -10 0 -698 184 -3224 861 -492 132 -895 241 -895 242 -1 1 -18 65
-39 142 -32 121 -170 634 -623 2325 -52 195 -173 648 -269 1005 l-174 650
1508 1508 c829 829 1513 1507 1520 1507 7 0 392 -101 855 -225z"/>
<path d="M4227 9262 c-16 -17 -37 -65 -37 -83 0 -5 8 -9 18 -10 13 0 14 -2 2
-6 -28 -11 -52 -38 -80 -93 -15 -30 -46 -72 -69 -92 l-41 -37 0 -142 c0 -114
-5 -166 -25 -258 -13 -64 -41 -207 -60 -318 -20 -111 -46 -239 -59 -285 l-22
-82 -65 -1 c-102 -3 -163 -46 -153 -109 3 -25 3 -27 -5 -11 -8 16 -10 11 -10
-26 -1 -34 3 -49 15 -53 32 -12 37 -5 13 22 l-24 27 31 -27 c16 -16 34 -28 40
-29 5 0 22 -16 37 -35 l29 -34 -46 -108 c-25 -59 -54 -148 -66 -197 -44 -189
-103 -502 -102 -535 0 -21 -2 -29 -7 -21 -6 9 -11 1 -15 -23 -7 -36 -26 -54
-99 -91 -48 -25 -77 -64 -84 -114 -5 -37 -4 -38 38 -56 52 -21 163 -24 228 -6
23 7 46 10 49 6 7 -6 -17 -165 -53 -350 -39 -206 -51 -350 -37 -448 19 -131
17 -144 -18 -152 -23 -5 -41 0 -76 20 -43 26 -46 26 -65 9 -13 -12 -19 -30
-19 -59 l0 -42 233 -28 c186 -22 241 -33 279 -51 55 -28 67 -29 74 -9 4 9 -4
23 -17 34 -27 21 -21 38 8 23 10 -5 56 -15 103 -21 65 -9 103 -21 163 -52 75
-38 80 -39 98 -23 26 23 24 29 -17 54 -21 14 -33 28 -30 36 3 8 -6 21 -20 31
l-26 16 38 32 38 32 -52 -5 -52 -5 0 32 c0 43 -14 32 -30 -24 -9 -33 -21 -50
-41 -60 -38 -20 -40 -19 -29 11 6 14 10 29 10 34 0 15 -60 23 -76 9 -8 -6 -18
-9 -22 -4 -11 11 71 79 145 118 47 25 61 37 45 37 -25 0 -65 -19 -157 -74 -33
-20 -77 -41 -97 -47 -36 -9 -38 -12 -38 -51 l0 -41 -23 21 c-30 28 -37 28 -37
-4 0 -40 -22 -25 -52 36 -63 125 -74 289 -38 532 25 170 28 457 5 502 -14 27
-14 32 10 72 14 24 25 58 25 79 0 20 6 60 14 88 8 29 31 180 51 337 19 157 45
323 56 370 18 71 24 146 35 445 7 198 18 374 23 390 8 23 10 4 8 -78 -1 -59
-1 -107 1 -107 10 0 32 77 41 145 11 74 10 81 -9 107 -11 15 -20 37 -20 50 0
31 49 206 66 238 18 34 17 15 -5 -115 -10 -60 -18 -112 -16 -113 10 -10 39 71
51 140 31 180 63 148 84 -87 7 -66 18 -147 26 -180 22 -97 19 -127 -21 -175
-55 -66 -40 -71 19 -6 l53 58 -12 42 c-18 58 -42 208 -56 348 -7 64 -15 121
-18 126 -3 5 -39 28 -79 51 -71 41 -74 44 -68 74 3 18 10 63 17 100 l11 68 47
-6 c135 -18 118 -5 173 -124 27 -58 51 -108 53 -110 2 -1 47 11 99 29 53 17
100 28 107 25 6 -4 26 -31 45 -61 30 -46 41 -56 94 -75 33 -12 63 -26 66 -30
9 -15 20 -10 32 15 9 21 8 25 -11 30 -12 3 -37 6 -55 6 -43 0 -72 20 -122 86
-49 65 -68 68 -172 24 -38 -16 -71 -30 -73 -30 -1 0 -8 20 -15 46 -7 25 -30
73 -51 108 -51 85 -54 102 -29 165 16 41 18 56 9 67 -10 12 -9 13 4 8 20 -7
47 52 47 102 0 32 -2 34 -33 34 -20 0 -41 -7 -50 -18z m-28 -256 c-3 -3 -11 5
-18 17 -13 21 -12 21 5 5 10 -10 16 -20 13 -22z m-9 -22 c0 -8 -19 -13 -24 -6
-3 5 1 9 9 9 8 0 15 -2 15 -3z m-342 -1200 c-3 -14 -5 -12 -10 9 -3 19 -2 25
4 19 6 -6 8 -18 6 -28z m-13 -51 c-2 -16 -4 -37 -5 -48 -2 -17 -3 -16 -9 5 -4
14 -3 35 2 48 13 29 16 28 12 -5z m25 -128 c13 -14 21 -25 18 -25 -2 0 -15 11
-28 25 -13 14 -21 25 -18 25 2 0 15 -11 28 -25z m-59 -12 c-12 -20 -14 -14 -5
12 4 9 9 14 11 11 3 -2 0 -13 -6 -23z m-11 -31 c0 -5 -7 -17 -15 -28 -14 -18
-14 -17 -4 9 12 27 19 34 19 19z m53 -17 c-3 -9 -8 -14 -10 -11 -3 3 -2 9 2
15 9 16 15 13 8 -4z m-26 -67 c-3 -8 -6 -5 -6 6 -1 11 2 17 5 13 3 -3 4 -12 1
-19z m-10 -40 c-3 -8 -6 -5 -6 6 -1 11 2 17 5 13 3 -3 4 -12 1 -19z m-10 -40
c-3 -8 -6 -5 -6 6 -1 11 2 17 5 13 3 -3 4 -12 1 -19z m-90 -20 c-3 -8 -6 -5
-6 6 -1 11 2 17 5 13 3 -3 4 -12 1 -19z m80 -40 c-3 -8 -6 -5 -6 6 -1 11 2 17
5 13 3 -3 4 -12 1 -19z m-10 -75 c-3 -10 -5 -4 -5 12 0 17 2 24 5 18 2 -7 2
-21 0 -30z m-110 -45 c-3 -8 -6 -5 -6 6 -1 11 2 17 5 13 3 -3 4 -12 1 -19z
m100 -45 c-3 -10 -5 -2 -5 17 0 19 2 27 5 18 2 -10 2 -26 0 -35z m-120 -45
c-3 -8 -6 -5 -6 6 -1 11 2 17 5 13 3 -3 4 -12 1 -19z m110 -45 c-3 -10 -5 -2
-5 17 0 19 2 27 5 18 2 -10 2 -26 0 -35z m-120 5 c-3 -8 -6 -5 -6 6 -1 11 2
17 5 13 3 -3 4 -12 1 -19z m-10 -50 c-3 -8 -6 -5 -6 6 -1 11 2 17 5 13 3 -3 4
-12 1 -19z m120 -35 c-3 -10 -5 -4 -5 12 0 17 2 24 5 18 2 -7 2 -21 0 -30z
m-130 -5 c-3 -8 -6 -5 -6 6 -1 11 2 17 5 13 3 -3 4 -12 1 -19z m-10 -50 c-3
-8 -6 -5 -6 6 -1 11 2 17 5 13 3 -3 4 -12 1 -19z m130 -25 c-3 -10 -5 -4 -5
12 0 17 2 24 5 18 2 -7 2 -21 0 -30z m-140 -15 c-3 -8 -6 -5 -6 6 -1 11 2 17
5 13 3 -3 4 -12 1 -19z m-10 -50 c-3 -8 -6 -5 -6 6 -1 11 2 17 5 13 3 -3 4
-12 1 -19z m140 -25 c-3 -10 -5 -2 -5 17 0 19 2 27 5 18 2 -10 2 -26 0 -35z
m73 -17 c0 -26 -6 -18 -14 19 -5 22 -4 26 4 15 5 -8 10 -24 10 -34z m-53 -73
c-3 -10 -5 -2 -5 17 0 19 2 27 5 18 2 -10 2 -26 0 -35z m-30 0 c-3 -10 -5 -4
-5 12 0 17 2 24 5 18 2 -7 2 -21 0 -30z m70 15 c-3 -8 -6 -5 -6 6 -1 11 2 17
5 13 3 -3 4 -12 1 -19z m-80 -80 c-3 -8 -6 -5 -6 6 -1 11 2 17 5 13 3 -3 4
-12 1 -19z m-146 -5 c13 -16 12 -17 -3 -4 -10 7 -18 15 -18 17 0 8 8 3 21 -13z
m219 3 c0 -3 -4 -8 -10 -11 -5 -3 -10 -1 -10 4 0 6 5 11 10 11 6 0 10 -2 10
-4z m-83 -48 c-3 -8 -6 -5 -6 6 -1 11 2 17 5 13 3 -3 4 -12 1 -19z m-197 -18
c-8 -5 -19 -10 -25 -10 -5 0 -3 5 5 10 8 5 20 10 25 10 6 0 3 -5 -5 -10z m187
-32 c-3 -8 -6 -5 -6 6 -1 11 2 17 5 13 3 -3 4 -12 1 -19z m-247 8 c0 -2 -8
-10 -17 -17 -16 -13 -17 -12 -4 4 13 16 21 21 21 13z m-63 -88 c-3 -8 -6 -5
-6 6 -1 11 2 17 5 13 3 -3 4 -12 1 -19z m293 19 c0 -2 -15 -16 -32 -33 l-33
-29 29 33 c28 30 36 37 36 29z m-263 -53 c-3 -3 -12 -4 -19 -1 -8 3 -5 6 6 6
11 1 17 -2 13 -5z m50 -10 c-3 -3 -12 -4 -19 -1 -8 3 -5 6 6 6 11 1 17 -2 13
-5z m133 -9 c-7 -8 -24 -14 -39 -14 l-26 2 25 4 c14 3 29 9 35 14 15 15 19 10
5 -6z m-77 -2 c-7 -2 -19 -2 -25 0 -7 3 -2 5 12 5 14 0 19 -2 13 -5z m227
-104 c0 -5 -4 -8 -9 -5 -13 8 -34 -21 -25 -36 5 -10 4 -10 -6 -1 -11 10 -10
16 5 33 20 22 35 26 35 9z m0 -39 c-6 -11 -13 -20 -16 -20 -2 0 0 9 6 20 6 11
13 20 16 20 2 0 0 -9 -6 -20z m27 -87 c-3 -10 -5 -4 -5 12 0 17 2 24 5 18 2
-7 2 -21 0 -30z m-110 -25 c-3 -8 -6 -5 -6 6 -1 11 2 17 5 13 3 -3 4 -12 1
-19z m-10 -60 c-3 -7 -5 -2 -5 12 0 14 2 19 5 13 2 -7 2 -19 0 -25z m120 -40
c-3 -7 -5 -2 -5 12 0 14 2 19 5 13 2 -7 2 -19 0 -25z m-130 -20 c-3 -7 -5 -2
-5 12 0 14 2 19 5 13 2 -7 2 -19 0 -25z m120 -30 c-3 -8 -6 -5 -6 6 -1 11 2
17 5 13 3 -3 4 -12 1 -19z m-130 -20 c-3 -7 -5 -2 -5 12 0 14 2 19 5 13 2 -7
2 -19 0 -25z m-10 -40 c-3 -8 -6 -5 -6 6 -1 11 2 17 5 13 3 -3 4 -12 1 -19z
m-10 -60 c-3 -7 -5 -2 -5 12 0 14 2 19 5 13 2 -7 2 -19 0 -25z m110 -30 c-3
-8 -6 -5 -6 6 -1 11 2 17 5 13 3 -3 4 -12 1 -19z m-120 -35 c-3 -10 -5 -4 -5
12 0 17 2 24 5 18 2 -7 2 -21 0 -30z m110 -55 c-2 -13 -4 -5 -4 17 -1 22 1 32
4 23 2 -10 2 -28 0 -40z m-120 -80 c-2 -18 -4 -4 -4 32 0 36 2 50 4 33 2 -18
2 -48 0 -65z m130 0 c-3 -7 -5 -2 -5 12 0 14 2 19 5 13 2 -7 2 -19 0 -25z m10
-40 c-3 -8 -6 -5 -6 6 -1 11 2 17 5 13 3 -3 4 -12 1 -19z m-130 -60 c-3 -7 -5
-2 -5 12 0 14 2 19 5 13 2 -7 2 -19 0 -25z m10 -60 c-3 -8 -6 -5 -6 6 -1 11 2
17 5 13 3 -3 4 -12 1 -19z m150 0 c-3 -8 -6 -5 -6 6 -1 11 2 17 5 13 3 -3 4
-12 1 -19z m10 -40 c-3 -8 -6 -5 -6 6 -1 11 2 17 5 13 3 -3 4 -12 1 -19z
m-150 -10 c-3 -8 -6 -5 -6 6 -1 11 2 17 5 13 3 -3 4 -12 1 -19z m160 -30 c-3
-8 -6 -5 -6 6 -1 11 2 17 5 13 3 -3 4 -12 1 -19z m-150 -10 c-3 -8 -6 -5 -6 6
-1 11 2 17 5 13 3 -3 4 -12 1 -19z m160 -40 c-3 -7 -5 -2 -5 12 0 14 2 19 5
13 2 -7 2 -19 0 -25z m430 -14 c-3 -3 -12 -4 -19 -1 -8 3 -5 6 6 6 11 1 17 -2
13 -5z m-500 -10 c-3 -3 -12 -4 -19 -1 -8 3 -5 6 6 6 11 1 17 -2 13 -5z m56
-1 c-7 -2 -19 -2 -25 0 -7 3 -2 5 12 5 14 0 19 -2 13 -5z m487 -16 c11 -5 9
-6 -4 -4 -11 1 -21 9 -23 17 -3 10 -2 11 4 4 4 -6 15 -14 23 -17z"/>
<path d="M4711 8542 c-1 -31 25 -99 35 -90 2 3 -4 31 -15 64 -17 52 -19 55
-20 26z"/>
<path d="M4783 8237 c4 -10 7 -23 7 -28 0 -10 50 -33 56 -26 2 2 -13 19 -33
38 -23 22 -34 27 -30 16z"/>
<path d="M4098 7914 c-36 -80 -58 -160 -57 -203 l0 -36 21 45 c22 50 70 229
65 243 -2 6 -15 -17 -29 -49z"/>
<path d="M4804 7344 c-14 -33 -15 -57 -8 -154 10 -146 10 -232 -2 -345 -18
-174 9 -451 62 -642 60 -218 104 -396 120 -495 l18 -108 -34 -35 -33 -34 21
-77 21 -77 -52 -58 c-63 -72 -126 -119 -170 -126 -35 -5 -131 11 -157 27 -11
7 -4 19 37 63 42 44 113 159 113 183 0 3 -20 25 -44 48 l-44 43 -7 104 c-14
215 -52 432 -85 488 -16 28 -12 -20 19 -207 17 -97 35 -230 42 -295 11 -115
13 -120 45 -153 19 -18 34 -38 34 -44 0 -22 -32 -71 -96 -146 l-66 -78 28 -23
c53 -43 153 -56 217 -29 18 7 49 32 68 54 20 23 56 57 81 76 25 19 48 42 51
51 4 8 -2 43 -13 78 -26 83 -25 99 10 130 18 17 30 37 30 52 0 37 -40 214
-114 513 -37 144 -70 304 -76 355 -13 127 -4 772 12 831 9 35 9 49 0 58 -9 9
-15 2 -28 -28z"/>
<path d="M3980 7163 c1 -17 31 -40 133 -102 72 -44 15 18 -85 92 -43 32 -48
33 -48 10z"/>
<path d="M4189 6996 c21 -22 52 -34 145 -53 52 -11 58 -30 96 -294 27 -185 65
-354 90 -398 8 -14 9 -14 16 2 4 11 -10 67 -35 142 -29 87 -44 154 -51 227
-20 194 -30 253 -53 298 -21 43 -25 45 -84 57 -35 7 -76 19 -92 28 -44 22 -58
18 -32 -9z"/>
<path d="M5486 5872 c-9 -32 -16 -64 -16 -70 0 -24 20 -11 33 21 23 52 51 70
117 75 43 3 60 1 60 -8 0 -20 -70 -427 -76 -444 -3 -8 -19 -18 -35 -21 -16 -4
-29 -13 -29 -21 0 -12 21 -14 127 -12 90 2 128 7 131 16 2 7 -5 12 -15 12 -11
0 -28 6 -38 14 -18 13 -17 20 14 217 44 275 34 249 91 249 62 0 95 -25 104
-80 9 -60 26 -48 26 19 0 33 3 66 6 75 6 14 -20 16 -239 16 l-244 0 -17 -58z"/>
<path d="M6029 5740 c-94 -49 -160 -202 -129 -295 25 -77 121 -78 192 -4 l37
39 3 -38 c6 -74 98 -77 158 -4 33 41 37 52 16 52 -8 0 -17 -9 -21 -19 -7 -23
-43 -37 -56 -24 -6 6 4 66 26 157 19 82 35 150 35 152 0 2 -21 4 -46 4 -37 0
-47 -4 -51 -20 -5 -20 -5 -20 -30 0 -32 25 -87 25 -134 0z m126 -34 c14 -22
14 -30 1 -90 -20 -83 -37 -116 -76 -150 -37 -31 -43 -31 -65 -9 -32 31 -2 167
52 241 29 39 66 43 88 8z"/>
<path d="M6424 5746 c-31 -14 -84 -63 -84 -78 0 -16 23 -7 42 17 19 25 52 33
62 16 3 -5 -9 -77 -27 -160 l-34 -151 52 0 52 0 22 99 c12 55 34 123 49 153
30 59 62 77 62 34 0 -15 8 -30 20 -36 24 -13 67 9 109 54 33 35 51 33 51 -5 0
-41 -69 -398 -81 -421 -5 -10 -16 -18 -23 -18 -8 0 -16 -7 -20 -15 -5 -13 11
-15 104 -15 91 0 110 3 110 15 0 9 -9 15 -24 15 -35 0 -38 11 -26 82 18 103
16 100 53 78 41 -25 70 -25 123 0 42 21 84 70 104 124 17 46 15 152 -4 182
-38 57 -117 55 -178 -6 l-38 -38 0 28 c0 65 -78 81 -148 31 -37 -28 -40 -28
-45 -10 -14 54 -107 39 -146 -25 -27 -44 -32 -45 -25 -7 5 21 1 34 -15 50 -24
24 -53 26 -97 7z m597 -70 c19 -40 -15 -170 -55 -214 -27 -29 -37 -34 -59 -28
-14 3 -29 15 -32 26 -8 25 12 124 32 165 37 74 93 99 114 51z"/>
<path d="M7255 5746 c-31 -13 -85 -69 -85 -87 0 -17 17 -9 43 21 32 36 57 39
57 8 0 -13 -14 -68 -30 -123 -36 -119 -33 -150 15 -170 49 -21 94 -4 150 56
45 48 47 49 40 20 -9 -43 1 -68 35 -80 48 -16 126 15 150 59 19 35 0 42 -27
10 -31 -37 -63 -40 -63 -6 0 19 18 108 55 274 5 22 3 23 -47 20 l-52 -3 -21
-90 c-28 -119 -63 -183 -116 -211 -49 -25 -51 2 -9 133 17 51 30 104 30 117 0
48 -70 77 -125 52z"/>
<path d="M7744 5746 c-33 -15 -74 -60 -74 -82 0 -21 9 -17 37 16 27 32 50 39
59 16 3 -7 -6 -53 -20 -102 -31 -105 -33 -155 -8 -177 39 -36 108 -14 162 50
l32 38 -7 -39 c-13 -76 -47 -169 -70 -192 -16 -16 -36 -24 -60 -24 -32 0 -35
3 -35 28 0 32 -9 46 -33 55 -27 10 -57 -10 -57 -38 0 -95 221 -102 287 -9 35
49 53 103 89 264 19 85 37 165 39 178 5 22 3 23 -46 20 l-51 -3 -22 -86 c-22
-91 -59 -158 -101 -185 -45 -29 -49 -7 -19 107 30 116 28 149 -11 167 -33 15
-52 15 -91 -2z"/>
<path d="M3320 5508 c1 -7 6 -23 14 -36 10 -19 14 -21 24 -10 16 20 3 58 -19
58 -11 0 -19 -6 -19 -12z"/>
<path d="M3280 5453 c-55 -5 -81 -13 -75 -22 3 -5 14 -7 24 -4 11 3 34 -2 52
-11 45 -23 57 -21 51 9 -5 30 -7 31 -52 28z"/>
<path d="M3195 5350 c-128 -20 -276 -79 -385 -153 -66 -45 -176 -153 -226
-223 -58 -81 -119 -211 -145 -309 -30 -114 -30 -346 0 -460 43 -163 134 -318
257 -436 85 -81 140 -118 246 -169 135 -64 219 -83 390 -84 80 -1 150 2 154 6
4 4 -17 44 -46 88 l-53 80 -68 0 c-141 0 -305 76 -414 192 -107 112 -165 259
-165 413 0 171 63 318 186 434 123 118 254 171 419 171 180 0 312 -55 436
-179 115 -115 165 -225 176 -387 14 -219 -92 -431 -276 -550 l-59 -38 49 -73
c27 -40 52 -73 55 -73 15 0 97 48 154 91 183 135 304 321 357 547 26 111 23
299 -5 415 -81 328 -343 594 -667 677 -92 24 -279 34 -370 20z"/>
<path d="M4075 5290 c-4 -6 -4 -10 -1 -10 2 0 11 -3 20 -6 9 -3 16 -2 16 4 0
14 -28 23 -35 12z"/>
<path d="M5085 4901 c-51 -16 -85 -59 -85 -109 0 -25 9 -43 34 -68 93 -93 231
9 171 126 -22 42 -76 65 -120 51z"/>
<path d="M8378 4854 c-4 -3 -7 -152 -8 -329 0 -316 0 -324 20 -330 17 -5 18
-10 9 -27 -8 -15 -7 -24 8 -40 10 -11 16 -22 14 -25 -7 -9 61 -83 71 -77 4 3
7 0 6 -7 -2 -7 24 -26 57 -43 49 -24 73 -30 130 -30 39 -1 79 3 90 8 11 5 28
10 38 11 11 1 22 6 25 11 4 5 13 10 21 12 28 6 81 55 109 101 38 62 43 77 32
103 l-9 23 0 -22 c-1 -27 -17 -38 -25 -17 -3 8 -2 13 3 10 5 -3 12 5 15 19 8
31 26 33 27 3 1 -13 5 -3 10 22 10 49 4 110 -11 110 -6 0 -10 5 -10 11 0 5 5
7 10 4 6 -3 10 -2 10 4 0 5 -5 13 -10 16 -6 4 -8 10 -5 15 10 17 -36 92 -90
145 -53 53 -104 77 -191 91 -49 7 -138 -17 -171 -48 -13 -12 -26 -19 -29 -15
-3 3 -5 71 -5 150 l2 144 -68 2 c-38 1 -72 -1 -75 -5z m105 -11 c-7 -2 -19 -2
-25 0 -7 3 -2 5 12 5 14 0 19 -2 13 -5z m-24 -32 c12 -21 5 -31 -21 -31 -10 0
-18 7 -18 15 0 8 -5 15 -11 15 -5 0 -7 5 -4 10 10 17 44 11 54 -9z m51 -51 c0
-5 -4 -10 -9 -10 -6 0 -13 5 -16 10 -3 6 1 10 9 10 9 0 16 -4 16 -10z m238
-156 c6 3 18 3 27 0 13 -5 14 -9 3 -15 -11 -7 -10 -11 2 -19 8 -5 20 -8 27 -5
7 2 10 -2 7 -10 -7 -18 -59 0 -78 27 -8 11 -19 17 -25 13 -6 -3 -11 -2 -11 4
0 13 24 20 31 8 4 -5 11 -7 17 -3z m-103 -4 c-3 -5 -14 -10 -23 -10 -15 0 -15
2 -2 10 20 13 33 13 25 0z m-181 -8 c2 -4 1 -14 -4 -22 -7 -11 -12 -12 -21 -3
-6 6 -8 16 -5 22 8 13 23 14 30 3z m35 -9 c-1 -5 2 -18 6 -31 7 -22 8 -22 27
-6 14 13 21 15 30 6 14 -14 9 -20 -18 -25 -10 -1 -25 -7 -33 -11 -10 -7 -12
-6 -6 4 6 9 4 12 -6 8 -10 -4 -14 4 -15 28 -1 19 3 34 7 34 5 0 9 -3 8 -7z
m385 -32 c3 -5 -5 -16 -19 -25 -40 -27 -73 -18 -43 12 18 18 33 15 18 -4 -12
-13 -10 -14 14 -3 19 9 23 15 14 21 -9 5 -10 8 -1 8 6 0 14 -4 17 -9z m-224
-14 c0 -17 -62 -51 -81 -45 -9 3 0 14 26 31 46 30 55 32 55 14z m65 3 c3 -5
-3 -10 -14 -10 -11 0 -23 5 -26 10 -3 6 3 10 14 10 11 0 23 -4 26 -10z m-275
-9 c0 -11 -39 -25 -47 -18 -3 3 -2 10 2 16 8 13 45 15 45 2z m468 -65 c16 -18
16 -18 -8 -11 -22 7 -23 6 -12 -8 10 -12 10 -16 1 -19 -8 -3 -10 -11 -6 -22 5
-13 14 -17 32 -14 20 4 25 1 25 -14 0 -29 -30 -35 -52 -9 -10 13 -24 21 -31
18 -7 -3 -19 4 -26 15 -7 11 -15 18 -17 15 -8 -8 27 -58 36 -52 5 3 6 -4 3
-14 -3 -10 0 -28 6 -40 9 -15 9 -27 1 -42 -6 -11 -12 -38 -12 -60 0 -21 -5
-39 -10 -39 -5 0 -6 6 -3 13 4 6 -3 -1 -15 -16 -45 -57 -123 -81 -187 -56 -14
5 -23 5 -23 -1 0 -6 6 -10 14 -10 8 0 18 -4 21 -10 8 -14 -58 0 -67 14 -11 16
-10 26 3 26 5 0 7 -4 4 -10 -3 -5 -1 -10 4 -10 20 0 12 15 -24 44 -19 16 -32
32 -30 36 2 4 -1 15 -8 24 -9 12 -11 37 -6 82 8 77 40 125 105 156 37 19 49
20 89 11 34 -8 45 -7 42 1 -2 6 -14 13 -28 14 -13 2 -31 10 -41 16 -15 11 -12
12 21 12 22 -1 37 -4 34 -8 -6 -11 5 -10 26 1 13 7 18 6 18 -4 0 -8 -7 -11
-16 -7 -14 5 -14 3 -3 -11 8 -9 11 -21 8 -26 -8 -13 11 -24 43 -26 15 -1 25
-7 23 -14 -1 -7 2 -11 8 -9 7 2 11 7 10 12 -1 5 4 12 11 17 10 6 5 11 -14 18
-30 12 -28 31 4 31 14 0 19 7 20 28 2 26 2 27 6 2 3 -14 12 -33 21 -44z m41 7
c12 -10 12 -11 0 -10 -24 4 -39 17 -39 35 0 14 2 14 13 1 6 -8 18 -19 26 -26z
m-419 -8 c0 -19 -4 -35 -10 -35 -5 0 -10 9 -10 20 0 22 -20 26 -38 8 -9 -9
-15 -9 -24 0 -16 16 -1 29 37 35 17 2 33 5 38 6 4 0 7 -15 7 -34z m83 -2 c-15
-13 -29 -19 -31 -13 -2 5 -9 7 -16 4 -7 -3 -13 2 -13 10 0 8 4 13 9 10 4 -3
16 -1 25 5 10 5 26 9 36 8 16 -1 14 -5 -10 -24z m-193 -8 c-7 -8 -16 -15 -21
-15 -5 0 -9 7 -9 15 0 9 9 15 21 15 18 0 19 -2 9 -15z m550 -20 c9 -11 9 -15
1 -15 -7 0 -6 -9 4 -24 15 -23 15 -27 -1 -58 -20 -38 -26 -78 -13 -78 5 0 9
-8 8 -17 0 -11 -3 -13 -6 -5 -2 6 -9 10 -14 7 -11 -8 -24 45 -13 54 16 11 44
80 35 86 -13 7 -32 65 -22 65 5 0 14 -7 21 -15z m-402 -7 c-2 -6 -15 -13 -28
-15 -24 -3 -24 -3 -5 11 24 18 38 20 33 4z m-75 -42 c-4 -6 1 -5 10 3 12 9 17
10 17 2 0 -7 5 -9 12 -5 7 4 8 3 4 -4 -4 -7 -14 -12 -23 -12 -9 0 -14 -3 -10
-6 12 -12 -17 -33 -30 -22 -13 10 -17 40 -8 50 10 10 34 4 28 -6z m-111 -88
c2 -20 0 -34 -4 -32 -4 3 -8 24 -7 47 1 47 6 41 11 -15z m35 20 c-3 -7 -5 -2
-5 12 0 14 2 19 5 13 2 -7 2 -19 0 -25z m571 -18 c-2 -16 -1 -32 4 -34 5 -2 4
-4 -2 -2 -7 1 -11 5 -11 9 1 4 1 18 1 32 0 14 3 25 6 25 4 0 4 -13 2 -30z
m-493 -58 c4 -26 17 -53 35 -70 27 -27 27 -29 9 -41 -11 -6 -17 -17 -13 -23 4
-7 3 -8 -5 -4 -6 4 -9 11 -6 16 3 5 -3 13 -12 19 -14 7 -18 23 -19 68 0 32 -4
69 -8 83 -5 17 -4 20 2 10 6 -8 13 -34 17 -58z m412 28 c-4 -16 0 -51 8 -77 8
-27 11 -51 6 -56 -18 -18 -31 6 -31 58 0 33 -5 56 -12 59 -10 5 -10 7 0 12 6
3 12 12 12 20 0 8 5 14 11 14 7 0 9 -11 6 -30z m-477 -35 c-6 -15 -13 -26 -16
-23 -2 3 0 18 6 33 6 15 13 26 16 23 2 -3 0 -18 -6 -33z m36 -87 c21 -23 31
-39 22 -36 -9 4 -19 1 -22 -7 -3 -8 1 -15 8 -17 9 -2 9 -8 -1 -28 -9 -18 -13
-20 -13 -8 0 10 -9 22 -20 28 -11 6 -18 16 -14 21 3 6 -4 21 -17 35 -23 25
-16 33 12 11 20 -16 30 -44 18 -51 -5 -2 -4 -3 3 -2 23 4 21 47 -3 72 -12 13
-20 24 -17 24 2 0 22 -19 44 -42z m409 -28 c11 -12 19 -25 18 -29 -2 -3 2 -7
7 -7 21 -3 22 -4 11 -17 -6 -8 -8 -17 -4 -21 4 -4 -1 -4 -12 0 -14 6 -17 4
-13 -7 3 -8 0 -20 -7 -26 -17 -16 -29 9 -12 26 8 8 8 11 0 11 -6 0 -14 -7 -17
-16 -3 -8 -10 -13 -16 -9 -5 3 -17 2 -27 -3 -35 -18 -111 -40 -117 -35 -12 12
-6 24 12 22 25 -4 82 11 82 22 0 15 68 38 96 33 24 -4 26 -3 14 11 -7 8 -19
15 -26 15 -13 0 -16 4 -18 33 -1 6 -8 18 -16 25 -13 11 -12 12 5 3 11 -5 29
-19 40 -31z m-69 5 c-14 -10 -15 -15 -6 -15 11 0 11 -3 2 -12 -9 -9 -15 -9
-23 -1 -8 8 -4 15 12 27 29 20 41 21 15 1z m159 5 c3 -5 1 -10 -4 -10 -6 0
-11 5 -11 10 0 6 2 10 4 10 3 0 8 -4 11 -10z m-25 -25 c5 3 7 -3 5 -12 -2 -10
-4 -20 -4 -22 -1 -3 -7 4 -15 14 -8 11 -12 24 -8 29 3 6 7 5 10 -2 2 -7 7 -10
12 -7z m-198 -35 c-17 -19 -26 -21 -68 -14 -38 5 -44 9 -29 15 11 4 37 8 58 8
26 1 40 6 44 18 4 10 8 12 11 5 2 -6 -5 -21 -16 -32z m-186 6 c15 -16 19 -36
7 -36 -5 0 -13 11 -20 25 -13 28 -8 32 13 11z m-25 -33 c1 -10 1 -21 0 -25 0
-5 4 -8 9 -8 6 0 10 6 11 13 0 10 2 10 6 0 2 -7 9 -13 14 -13 6 0 8 3 6 8 -3
4 6 7 19 7 13 0 24 -4 25 -10 0 -5 2 -19 4 -30 3 -15 -1 -21 -14 -21 -12 0
-17 5 -13 15 4 10 1 13 -12 8 -10 -4 -15 -3 -11 3 9 14 -8 12 -24 -2 -11 -11
-12 -10 -6 0 5 9 2 12 -11 10 -13 -2 -18 5 -21 30 -2 18 0 32 6 32 6 0 12 -8
12 -17z m133 -12 c-21 -21 -29 -19 -21 4 4 8 14 15 23 15 16 0 16 -2 -2 -19z
m103 13 c-3 -3 -12 -4 -19 -1 -8 3 -5 6 6 6 11 1 17 -2 13 -5z m73 -41 c-8 -3
-19 -12 -23 -19 -4 -8 -13 -14 -19 -14 -6 0 -3 9 7 20 10 11 25 20 34 19 14 0
14 -1 1 -6z m-80 -28 c-7 -9 -15 -13 -19 -10 -3 3 1 10 9 15 21 14 24 12 10
-5z m-37 -12 c-7 -2 -19 -2 -25 0 -7 3 -2 5 12 5 14 0 19 -2 13 -5z"/>
<path d="M8600 4470 c-8 -5 -10 -10 -5 -10 6 0 17 5 25 10 8 5 11 10 5 10 -5
0 -17 -5 -25 -10z"/>
<path d="M8483 4372 c0 -12 5 -22 9 -22 11 0 10 12 -2 30 -7 12 -9 10 -7 -8z"/>
<path d="M8500 4170 c0 -11 2 -20 4 -20 2 0 12 -3 21 -6 14 -6 14 -3 4 20 -14
31 -29 34 -29 6z"/>
<path d="M6953 4814 c-9 -4 -12 -113 -13 -435 l-1 -429 306 0 305 0 0 85 0 85
-221 2 -220 3 1 348 0 347 -72 -1 c-40 0 -78 -3 -85 -5z m87 -20 c0 -2 -19 -4
-42 -3 -31 0 -37 3 -24 8 18 7 66 3 66 -5z m38 -301 l-3 -318 -2 279 c-2 185
-7 284 -14 293 -9 10 -8 13 2 15 8 1 -11 4 -41 8 l-55 7 53 1 c28 1 51 5 51
10 -2 12 1 22 6 22 3 0 4 -143 3 -317z m-38 -15 c0 -144 -3 -258 -7 -252 -8 9
-5 514 3 514 2 0 4 -118 4 -262z m27 -330 c-3 -8 -6 -5 -6 6 -1 11 2 17 5 13
3 -3 4 -12 1 -19z m21 -37 c-15 -6 -20 7 -12 31 l8 23 6 -25 c3 -14 2 -27 -2
-29z m389 -118 c-2 -21 -4 -4 -4 37 0 41 2 58 4 38 2 -21 2 -55 0 -75z"/>
<path d="M3233 4652 c-101 -36 -170 -99 -221 -202 -24 -49 -27 -66 -27 -155 0
-89 3 -106 28 -156 15 -31 49 -78 75 -105 182 -185 478 -134 598 103 26 53 29
67 29 158 0 90 -3 106 -29 160 -38 76 -111 149 -184 183 -76 35 -194 41 -269
14z"/>
<path d="M5590 4631 c-38 -12 -91 -41 -128 -68 l-33 -25 -38 43 c-26 30 -42
41 -54 36 -16 -6 -17 -44 -17 -457 l0 -450 85 0 85 0 0 145 c0 80 2 145 4 145
2 0 28 -11 58 -25 147 -68 332 4 408 160 21 43 24 65 25 155 0 87 -4 113 -22
152 -31 68 -104 142 -166 168 -56 24 -164 35 -207 21z m167 -189 c93 -66 88
-235 -8 -299 -45 -30 -118 -34 -165 -10 -86 44 -118 155 -71 247 33 67 78 93
152 88 42 -3 70 -10 92 -26z"/>
<path d="M6279 4624 c-286 -99 -306 -510 -30 -646 37 -18 63 -23 136 -23 85 0
94 2 155 36 117 64 175 169 175 314 -1 93 -28 165 -90 233 -78 87 -233 125
-346 86z m181 -169 c16 -8 42 -32 57 -52 25 -32 28 -45 28 -109 0 -58 -4 -78
-21 -100 -66 -89 -169 -103 -249 -33 -42 37 -59 85 -53 156 5 60 26 95 78 131
39 26 116 30 160 7z"/>
<path d="M7840 4620 c-43 -11 -92 -35 -84 -42 3 -4 -1 -5 -8 -4 -7 0 -13 -3
-13 -9 0 -5 3 -9 8 -7 4 1 7 -2 7 -8 0 -5 7 -10 15 -10 8 0 15 -4 15 -9 0 -6
-9 -9 -19 -8 -11 0 -17 6 -14 12 4 5 3 7 -2 3 -4 -4 -14 -3 -20 2 -7 6 -20 8
-28 4 -24 -9 -69 -72 -57 -79 5 -3 10 1 10 10 0 10 5 13 12 9 7 -5 8 -3 3 6
-5 8 -4 11 3 6 6 -4 9 -13 6 -20 -3 -8 2 -16 13 -19 12 -4 9 -5 -7 -4 -16 1
-28 -5 -36 -21 -17 -34 -27 -40 -15 -10 7 17 7 29 1 33 -6 4 -11 1 -11 -4 -3
-20 -5 -26 -18 -50 -7 -12 -11 -32 -8 -42 3 -10 1 -22 -4 -25 -23 -14 1 -181
26 -181 11 0 12 4 4 13 -5 6 -6 14 -2 16 4 3 3 3 -4 2 -7 -2 -10 3 -7 11 5 12
10 12 30 -2 28 -18 31 -25 8 -16 -10 4 -15 1 -14 -8 4 -27 0 -40 -10 -34 -19
11 -10 -12 19 -51 48 -67 139 -133 162 -118 6 4 14 2 18 -4 11 -18 112 -26
146 -11 17 7 33 11 38 11 12 -3 87 38 87 47 0 5 9 11 21 14 12 3 18 10 14 16
-4 7 0 8 10 5 9 -4 29 -26 46 -50 57 -83 58 -79 58 284 1 190 -3 321 -8 313
-7 -11 -9 -11 -13 0 -3 9 -15 2 -36 -21 -17 -19 -29 -41 -27 -48 2 -7 -19 5
-48 27 -59 44 -81 55 -120 65 -26 6 -27 5 -21 -19 5 -19 2 -25 -11 -25 -13 0
-15 6 -10 30 6 29 6 30 -32 29 -21 -1 -54 -5 -73 -9z m78 -15 c-2 -6 -17 -9
-34 -7 -19 1 -36 -4 -44 -13 -7 -8 -19 -15 -27 -15 -31 0 8 29 50 38 48 11 60
10 55 -3z m120 -29 c9 2 7 -1 -5 -7 -13 -7 -23 -16 -23 -21 0 -11 4 -10 34 3
20 9 29 9 41 -1 8 -7 12 -17 8 -23 -4 -6 0 -8 11 -4 11 4 15 3 11 -4 -4 -6
-13 -8 -21 -5 -9 4 -18 -3 -23 -16 -6 -16 -10 -18 -16 -9 -4 8 -2 17 6 22 11
7 9 9 -6 9 -18 1 -17 2 5 16 l25 15 -25 -6 c-14 -3 -32 -7 -40 -8 -8 -1 -21
-8 -29 -15 -15 -14 -33 -12 -39 6 -2 7 5 12 15 12 24 0 43 19 44 45 1 16 2 16
6 3 2 -10 11 -15 21 -12z m191 -30 c-1 -19 -2 -19 -6 -2 -4 15 -7 16 -14 5 -7
-11 -9 -9 -9 8 0 16 4 21 15 17 8 -4 14 -16 14 -28z m-44 5 c-3 -5 -1 -12 5
-16 14 -9 12 -27 -2 -22 -17 5 -18 47 -2 47 3 0 3 -4 -1 -9z m-295 -11 c0 -5
-11 -10 -25 -10 -14 0 -25 5 -25 10 0 6 11 10 25 10 14 0 25 -4 25 -10z m-165
-25 c0 -10 -6 -20 -12 -22 -8 -3 -13 5 -13 22 0 17 5 25 13 23 6 -3 12 -13 12
-23z m160 -14 c17 -7 15 -8 -10 -14 -17 -3 -39 -14 -50 -24 -20 -19 -21 -19
-43 2 -24 23 -23 24 31 26 9 0 15 4 12 10 -7 11 32 11 60 0z m65 -1 c18 -12 2
-12 -25 0 -13 6 -15 9 -5 9 8 0 22 -4 30 -9z m88 -23 c6 -5 12 -13 12 -19 0
-7 -5 -6 -15 2 -8 7 -25 10 -38 8 -14 -3 -24 0 -24 7 0 14 44 14 65 2z m82 3
c0 -5 -4 -10 -10 -10 -5 0 -10 5 -10 10 0 6 5 10 10 10 6 0 10 -4 10 -10z m88
-16 c-9 -9 -21 -13 -28 -9 -8 5 -4 11 12 19 29 16 37 10 16 -10z m-224 -8 c10
-1 31 -20 47 -41 38 -51 39 -51 39 -27 0 12 -3 21 -7 20 -5 -2 -9 2 -9 7 -1 6
2 9 8 7 5 -1 7 6 3 18 -5 15 -2 20 10 20 12 0 15 -5 10 -17 -4 -10 -8 -65 -10
-123 -3 -107 -8 -150 -20 -169 -3 -6 1 -11 10 -11 10 0 15 -7 13 -17 -2 -11 2
-17 10 -15 19 3 54 -17 47 -29 -4 -5 -1 -9 4 -9 6 0 11 5 11 11 0 6 7 3 17 -6
13 -14 14 -18 3 -25 -8 -5 -19 -2 -28 6 -11 11 -17 12 -28 3 -7 -6 -17 -8 -22
-5 -5 3 -8 -5 -8 -17 1 -15 -6 -23 -21 -25 -13 -2 -23 2 -23 8 0 6 4 9 8 6 4
-2 14 0 22 5 12 8 12 12 3 16 -18 7 -16 23 2 23 8 0 15 4 15 9 0 15 -42 41
-54 34 -6 -4 -5 1 3 10 7 9 10 17 7 17 -4 0 -1 10 5 23 12 22 12 22 -9 3 -12
-10 -19 -23 -16 -27 3 -5 -3 -9 -14 -9 -25 0 -34 -10 -22 -25 8 -9 -2 -16 -35
-25 -25 -7 -48 -10 -52 -6 -3 3 3 6 13 6 11 0 29 6 39 14 18 13 15 14 -26 9
-28 -3 -58 1 -82 11 -21 8 -35 10 -31 4 4 -6 1 -9 -7 -6 -8 3 -13 11 -11 18 3
15 -17 42 -27 35 -4 -2 -8 1 -9 8 0 7 -6 30 -12 52 -6 22 -11 51 -9 65 1 14 2
35 3 48 0 12 4 22 9 22 4 0 7 6 7 13 0 20 63 77 96 87 25 8 46 8 128 -4z m176
-17 c0 -11 -27 -12 -34 0 -3 4 -3 11 0 14 8 8 34 -3 34 -14z m-372 2 c2 -1 -8
-15 -23 -33 -15 -18 -31 -42 -36 -55 -5 -13 -13 -23 -18 -23 -5 0 -9 -15 -8
-34 1 -19 5 -32 8 -30 4 2 9 -3 13 -11 3 -8 0 -14 -7 -12 -7 1 -12 -9 -12 -25
1 -16 -4 -28 -10 -28 -7 0 -10 13 -8 33 3 22 1 28 -5 19 -7 -10 -11 -5 -16 18
-7 36 2 60 15 39 13 -22 17 -7 7 29 -5 20 -13 30 -20 26 -7 -5 -9 1 -4 20 4
15 2 26 -4 26 -14 0 -13 27 2 36 6 4 8 3 5 -2 -7 -12 0 -22 31 -48 22 -19 23
-19 36 0 10 12 11 24 5 36 -5 9 -9 19 -9 23 0 4 32 2 58 -4z m-58 -25 c0 -3
-4 -8 -10 -11 -5 -3 -10 -1 -10 4 0 6 5 11 10 11 6 0 10 -2 10 -4z m-70 -30
c0 -11 -19 -15 -25 -6 -3 5 1 10 9 10 9 0 16 -2 16 -4z m-30 -126 c0 -13 -1
-13 -10 0 -5 8 -10 22 -10 30 0 13 1 13 10 0 5 -8 10 -22 10 -30z m73 -95 c-3
-9 -8 -14 -10 -11 -3 3 -2 9 2 15 9 16 15 13 8 -4z m-30 -30 c-3 -9 -8 -14
-10 -11 -3 3 -2 9 2 15 9 16 15 13 8 -4z m107 5 c0 -5 -5 -10 -11 -10 -5 0 -7
5 -4 10 3 6 8 10 11 10 2 0 4 -4 4 -10z m-120 -35 c17 10 19 -13 3 -26 -12
-10 -15 -10 -9 -1 4 7 1 14 -7 18 -8 3 -14 13 -12 22 6 28 7 28 12 4 2 -12 8
-20 13 -17z m160 -29 c25 -8 40 -15 34 -15 -7 -1 -14 -10 -17 -22 -7 -26 -31
-20 -35 9 -3 17 -10 22 -33 22 -16 0 -29 5 -29 10 0 14 27 12 80 -4z m63 7
c-7 -2 -21 -2 -30 0 -10 3 -4 5 12 5 17 0 24 -2 18 -5z m102 -23 c-11 -5 -31
-8 -45 -8 -23 0 -22 1 5 8 42 11 65 11 40 0z m-242 -24 c7 -18 -1 -26 -18 -19
-8 2 -11 11 -8 19 7 18 19 18 26 0z m287 8 c0 -16 -22 -43 -33 -38 -7 2 -17
-5 -22 -17 -9 -19 -34 -25 -27 -6 1 4 -3 7 -9 7 -8 0 -8 4 0 14 14 17 58 27
65 14 2 -5 3 -3 2 4 -2 8 -15 12 -32 11 -25 -2 -26 -1 -9 6 23 11 65 14 65 5z
m-100 -13 c0 -12 -39 -25 -48 -16 -7 7 17 25 36 25 6 0 12 -4 12 -9z m289 2
c10 9 11 5 7 -18 -2 -16 -5 -36 -5 -43 -1 -7 -6 -10 -11 -7 -8 5 -8 11 -1 19
12 14 -4 36 -26 36 -7 0 -13 5 -13 10 0 7 6 7 18 1 13 -7 23 -6 31 2z m-396
-17 c9 0 17 -4 17 -9 0 -5 -10 -6 -22 -3 -39 12 -53 11 -50 -2 1 -8 -2 -11 -8
-7 -17 11 10 37 29 29 9 -4 24 -7 34 -8z m12 -36 c21 -14 25 -20 13 -20 -10 0
-18 5 -18 10 0 6 -6 10 -14 10 -8 0 -18 5 -21 10 -10 16 7 12 40 -10z m90 -10
c3 -5 2 -10 -4 -10 -5 0 -13 5 -16 10 -3 6 -2 10 4 10 5 0 13 -4 16 -10z"/>
<path d="M7835 4489 c-4 -6 -14 -8 -24 -4 -12 5 -13 3 -4 -6 9 -9 17 -8 34 5
13 9 18 16 12 16 -7 0 -15 -5 -18 -11z"/>
<path d="M8094 4081 c0 -15 3 -17 13 -9 7 6 10 14 7 19 -9 15 -20 10 -20 -10z"/>
<path d="M7683 4377 c4 -10 7 -23 7 -28 0 -5 5 -9 10 -9 15 0 12 20 -7 38 -16
16 -16 16 -10 -1z"/>
<path d="M4317 4613 c-11 -10 -8 -342 3 -412 14 -83 39 -129 96 -180 102 -90
238 -94 356 -9 l31 21 29 -36 c17 -20 39 -37 49 -37 19 0 19 10 17 328 l-3
327 -80 0 -80 0 -5 -212 -5 -213 -37 -37 c-31 -31 -43 -36 -82 -36 -25 0 -56
7 -71 17 -48 32 -55 67 -55 286 l0 200 -78 0 c-43 0 -82 -3 -85 -7z"/>
<path d="M5030 4290 l0 -330 80 0 80 0 0 330 0 330 -80 0 -80 0 0 -330z"/>
</g>
</svg>
