<?xml version="1.0" standalone="no"?>
<!DOCTYPE svg PUBLIC "-//W3C//DTD SVG 20010904//EN"
 "http://www.w3.org/TR/2001/REC-SVG-20010904/DTD/svg10.dtd">
<svg version="1.0" xmlns="http://www.w3.org/2000/svg"
 width="1083.000000pt" height="1083.000000pt" viewBox="0 0 1083.000000 1083.000000"
 preserveAspectRatio="xMidYMid meet">
<metadata>
Created by potrace 1.11, written by Peter Selinger 2001-2013
</metadata>
<g transform="translate(0.000000,1083.000000) scale(0.100000,-0.100000)"
fill="#000000" stroke="none">
<path d="M3070 9471 l-2335 -1348 -2 -2709 -3 -2709 2331 -1345 c1282 -740
2339 -1345 2350 -1345 10 0 1067 605 2349 1345 l2330 1345 -3 2709 -2 2709
-150 87 c-492 286 -4505 2601 -4517 2605 -7 2 -1064 -602 -2348 -1344z m3314
-136 c1221 -327 2223 -598 2227 -602 8 -9 1189 -4414 1189 -4435 0 -18 -3241
-3258 -3259 -3258 -22 0 -4425 1181 -4434 1189 -4 4 -275 1006 -602 2227
l-595 2219 1627 1627 c896 896 1628 1628 1628 1628 0 0 999 -268 2219 -595z"/>
<path d="M2597 8242 c-873 -873 -1587 -1592 -1587 -1599 0 -11 1160 -4347
1163 -4349 1 0 981 -262 2177 -583 l2174 -582 1593 1593 1593 1593 -581 2170
c-319 1194 -584 2174 -588 2178 -8 8 -4323 1167 -4345 1167 -6 0 -725 -714
-1599 -1588z m3762 814 c1118 -300 2036 -547 2039 -550 7 -8 1102 -4095 1102
-4115 0 -9 -678 -694 -1507 -1522 l-1508 -1507 -2058 553 c-1133 303 -2062
557 -2065 563 -4 6 -254 934 -556 2062 l-550 2051 1510 1510 c1335 1336 1512
1509 1534 1505 14 -3 940 -250 2059 -550z"/>
<path d="M5680 6046 c0 -8 10 -18 21 -21 15 -5 40 -46 85 -142 l65 -135 -11
-61 c-20 -118 -20 -118 -51 -129 -16 -5 -29 -16 -29 -24 0 -11 24 -14 120 -14
96 0 120 3 120 14 0 8 -13 19 -30 25 -34 11 -34 9 -16 117 11 72 21 95 87 204
45 74 85 130 101 139 49 29 35 41 -47 41 -60 0 -75 -3 -75 -15 0 -8 6 -15 14
-15 7 0 18 -6 24 -13 8 -10 -3 -38 -46 -115 -31 -56 -59 -98 -63 -94 -4 4 -25
49 -48 101 -32 72 -39 97 -30 107 6 8 18 14 25 14 8 0 14 7 14 15 0 12 -19 15
-115 15 -93 0 -115 -3 -115 -14z"/>
<path d="M6165 5876 c-31 -13 -85 -69 -85 -87 0 -18 19 -8 40 21 24 33 60 41
60 13 0 -10 -14 -69 -32 -131 -30 -104 -31 -115 -18 -140 33 -58 114 -46 181
27 l47 50 -5 -37 c-6 -51 13 -75 63 -75 48 0 95 23 118 58 25 38 9 50 -21 15
-32 -38 -63 -40 -63 -4 0 20 24 141 55 272 5 21 2 22 -48 22 l-53 0 -14 -67
c-25 -128 -67 -210 -121 -238 -49 -26 -51 1 -9 135 35 111 36 121 13 149 -23
27 -70 35 -108 17z"/>
<path d="M6633 5870 c-34 -20 -70 -67 -60 -77 4 -3 20 8 36 26 32 35 49 39 58
15 5 -13 -56 -365 -74 -427 -2 -10 -16 -22 -29 -27 -51 -20 -23 -30 81 -30 87
0 105 3 105 15 0 8 -9 15 -20 15 -30 0 -34 21 -20 98 16 83 18 87 38 69 64
-56 172 -14 224 87 28 55 36 162 15 203 -35 67 -126 66 -186 -2 l-31 -36 0 29
c0 59 -73 82 -137 42z m251 -115 c-1 -122 -60 -214 -121 -186 -25 11 -25 14
-19 73 9 74 23 112 61 156 21 25 34 32 54 30 25 -3 26 -5 25 -73z"/>
<path d="M7164 5858 c-67 -45 -117 -141 -118 -228 -1 -52 3 -63 25 -86 46 -46
127 -30 183 36 l26 32 0 -35 c0 -43 18 -59 66 -59 39 0 76 22 108 65 26 36 10
49 -18 15 -21 -27 -50 -36 -60 -20 -3 5 10 74 29 153 19 79 35 147 35 152 0 4
-21 7 -46 7 -37 0 -47 -4 -51 -20 -5 -20 -5 -20 -30 0 -39 30 -92 26 -149 -12z
m148 -22 c8 -19 7 -40 -6 -92 -21 -84 -37 -115 -76 -148 -39 -32 -45 -32 -66
-1 -14 22 -15 33 -4 87 14 71 51 152 77 167 32 18 63 13 75 -13z"/>
<path d="M7580 5879 c-27 -11 -90 -68 -90 -81 0 -16 23 -7 42 17 20 25 52 33
63 15 3 -5 -8 -71 -25 -147 -16 -76 -30 -143 -30 -150 0 -9 16 -13 49 -13 l49
0 17 78 c22 102 48 159 93 205 71 73 84 44 43 -91 -52 -166 -39 -201 69 -192
32 3 72 31 90 64 20 39 2 45 -26 8 -27 -34 -51 -41 -60 -18 -3 8 9 59 26 115
37 117 36 156 -2 184 -43 32 -92 17 -153 -47 l-50 -53 3 43 c3 34 0 44 -19 58
-26 18 -52 19 -89 5z"/>
<path d="M8134 5871 c-79 -48 -134 -149 -134 -247 0 -58 27 -101 65 -105 56
-4 78 3 120 42 43 40 45 40 45 17 0 -41 22 -60 68 -60 48 1 87 24 108 64 20
40 8 50 -18 15 -25 -34 -58 -37 -58 -4 0 12 14 78 30 145 17 68 30 130 30 138
0 10 -12 14 -44 14 -35 0 -46 -4 -51 -19 -6 -20 -6 -20 -26 0 -25 25 -93 25
-135 0z m124 -23 c16 -16 15 -48 -4 -122 -26 -103 -93 -176 -131 -144 -35 29
4 205 56 257 23 23 61 27 79 9z"/>
<path d="M3201 5350 c-128 -18 -279 -77 -391 -153 -66 -45 -176 -153 -226
-223 -58 -81 -119 -211 -145 -309 -18 -65 -22 -108 -22 -230 0 -174 17 -254
83 -393 50 -104 86 -157 169 -244 81 -86 161 -145 272 -198 136 -65 220 -83
391 -84 80 -1 150 2 154 6 4 4 -17 44 -46 88 l-53 80 -64 0 c-84 0 -140 14
-242 61 -155 72 -281 228 -326 404 -51 201 16 428 171 574 123 118 254 171
419 171 181 0 304 -50 431 -175 83 -82 122 -143 160 -255 29 -84 27 -272 -4
-361 -46 -133 -138 -251 -253 -326 l-57 -37 49 -73 c27 -40 52 -73 55 -73 15
0 97 48 154 91 321 237 453 642 333 1023 -95 301 -345 539 -647 616 -92 23
-271 33 -365 20z"/>
<path d="M5085 4901 c-51 -16 -85 -59 -85 -109 0 -25 9 -43 34 -68 92 -92 231
10 171 126 -22 42 -76 65 -120 51z"/>
<path d="M8210 4545 c0 -300 1 -328 20 -378 65 -174 267 -260 437 -187 23 10
63 38 88 61 225 207 81 595 -220 593 -58 -1 -134 -28 -150 -54 -19 -31 -25 3
-25 140 l0 150 -75 0 -75 0 0 -325z m397 -84 c49 -23 89 -78 99 -136 24 -156
-140 -269 -266 -182 -47 32 -70 81 -70 150 0 65 14 98 58 140 51 48 112 58
179 28z"/>
<path d="M6790 4395 l0 -435 300 0 300 0 0 85 0 85 -220 0 -220 0 0 350 0 350
-80 0 -80 0 0 -435z"/>
<path d="M3233 4652 c-147 -53 -242 -178 -251 -331 -6 -100 14 -170 70 -245
170 -230 503 -198 634 62 26 52 29 67 29 157 0 90 -3 106 -29 160 -38 76 -111
149 -184 183 -76 35 -194 41 -269 14z"/>
<path d="M5590 4631 c-38 -12 -91 -41 -128 -68 l-33 -25 -38 43 c-26 30 -42
41 -54 36 -16 -6 -17 -44 -17 -457 l0 -450 85 0 85 0 0 145 c0 80 2 145 4 145
2 0 29 -12 61 -26 50 -23 67 -26 130 -22 131 9 218 69 274 188 23 48 26 68 26
155 0 89 -3 106 -28 156 -32 66 -100 132 -163 160 -49 22 -164 33 -204 20z
m167 -189 c93 -66 88 -235 -8 -299 -45 -30 -118 -34 -165 -10 -86 44 -118 155
-71 247 33 67 78 93 152 88 42 -3 70 -10 92 -26z"/>
<path d="M6279 4624 c-286 -99 -306 -510 -30 -646 37 -18 63 -23 136 -23 85 0
94 2 155 36 117 64 175 169 174 314 -1 189 -129 324 -313 332 -51 2 -91 -2
-122 -13z m191 -176 c61 -42 75 -71 75 -153 0 -59 -4 -79 -21 -101 -66 -89
-169 -103 -249 -33 -42 37 -59 85 -53 156 8 92 72 153 163 153 38 0 61 -6 85
-22z"/>
<path d="M7683 4630 c-211 -44 -322 -290 -224 -497 86 -182 315 -234 480 -109
19 14 38 26 42 26 4 0 22 -20 40 -45 59 -82 59 -80 59 280 0 362 1 359 -63
285 l-35 -41 -29 25 c-77 64 -183 94 -270 76z m133 -169 c108 -49 140 -198 61
-288 -102 -116 -272 -63 -293 91 -21 149 104 255 232 197z"/>
<path d="M4317 4613 c-11 -10 -8 -330 3 -406 13 -86 37 -134 96 -186 102 -90
238 -94 356 -9 l31 21 29 -36 c17 -20 39 -37 49 -37 18 0 19 12 19 330 l0 331
-82 -3 -83 -3 -5 -212 -5 -212 -29 -30 c-58 -61 -144 -60 -190 2 -20 26 -21
43 -24 243 l-3 214 -78 0 c-43 0 -81 -3 -84 -7z"/>
<path d="M5030 4290 l0 -330 80 0 80 0 0 330 0 330 -80 0 -80 0 0 -330z"/>
</g>
</svg>
