<?xml version="1.0" standalone="no"?>
<!DOCTYPE svg PUBLIC "-//W3C//DTD SVG 20010904//EN"
 "http://www.w3.org/TR/2001/REC-SVG-20010904/DTD/svg10.dtd">
<svg version="1.0" xmlns="http://www.w3.org/2000/svg"
 width="1445.000000pt" height="1445.000000pt" viewBox="0 0 1445.000000 1445.000000"
 preserveAspectRatio="xMidYMid meet">
<metadata>
Created by potrace 1.11, written by Peter Selinger 2001-2013
</metadata>
<g transform="translate(0.000000,1445.000000) scale(0.100000,-0.100000)"
fill="#000000" stroke="none">
<path d="M6899 14436 c-2 -2 -60 -7 -129 -11 -69 -3 -138 -8 -155 -9 -16 -2
-66 -7 -110 -11 -44 -3 -93 -9 -110 -11 -16 -2 -52 -6 -80 -9 -218 -26 -393
-56 -750 -130 -70 -15 -322 -83 -445 -120 -694 -211 -1355 -523 -1910 -903
-229 -156 -584 -419 -646 -477 -6 -5 -26 -24 -45 -40 -19 -17 -52 -51 -73 -75
-22 -25 -52 -53 -68 -62 -81 -51 -322 -287 -508 -499 -30 -34 -60 -67 -65 -73
-44 -47 -217 -254 -270 -324 -5 -7 -17 -21 -26 -30 -34 -38 -119 -152 -119
-161 0 -5 -3 -11 -7 -13 -9 -3 -15 -13 -78 -104 -23 -33 -66 -96 -98 -141 -31
-45 -57 -84 -57 -86 0 -2 -26 -44 -58 -93 -55 -84 -237 -393 -237 -404 0 -3
-17 -34 -37 -70 -76 -134 -260 -534 -325 -705 -9 -22 -19 -49 -24 -60 -28 -63
-145 -413 -187 -560 -67 -229 -156 -629 -177 -792 -2 -12 -6 -34 -9 -50 -7
-35 -18 -115 -35 -258 -17 -136 -20 -167 -27 -250 -3 -44 -7 -91 -9 -105 -24
-143 -23 -1018 0 -1237 2 -21 7 -65 9 -98 9 -102 19 -190 32 -285 6 -43 51
-304 59 -345 46 -227 55 -263 136 -565 23 -83 134 -428 154 -475 7 -16 23 -57
35 -90 12 -33 26 -69 30 -80 5 -11 25 -63 46 -115 20 -52 50 -124 66 -160 17
-36 38 -83 48 -105 199 -438 428 -836 693 -1205 86 -119 219 -290 262 -337 11
-11 27 -30 35 -41 15 -20 94 -110 185 -213 55 -61 123 -139 182 -208 147 -172
464 -458 803 -724 107 -84 302 -217 318 -217 4 0 30 -20 57 -45 49 -44 239
-168 360 -235 33 -18 80 -44 105 -58 25 -14 83 -45 130 -70 47 -25 90 -48 95
-52 26 -20 405 -204 524 -255 316 -134 675 -256 976 -332 199 -50 459 -105
595 -128 19 -3 46 -7 60 -10 14 -2 43 -7 65 -10 23 -3 50 -7 62 -9 12 -3 43
-7 70 -11 26 -4 59 -9 73 -11 23 -4 80 -12 140 -20 27 -3 137 -11 295 -19 55
-3 114 -8 130 -10 33 -5 530 -6 635 -1 176 9 359 18 390 21 19 2 76 6 125 9
50 4 101 9 115 11 14 2 50 6 80 10 30 3 84 13 120 21 36 9 85 17 109 19 24 2
45 5 47 7 9 9 -54 122 -143 256 -54 81 -100 152 -102 157 -2 6 -7 12 -10 15
-13 11 -176 255 -346 517 -82 128 -180 267 -214 305 -26 30 -61 37 -61 13 0
-11 -7 -14 -27 -10 -29 5 -185 11 -486 20 -92 2 -171 6 -175 9 -4 2 -41 7 -82
11 -41 4 -77 8 -80 10 -3 1 -36 6 -75 10 -259 25 -458 69 -755 167 -162 53
-301 102 -365 128 -145 59 -207 87 -364 167 -211 108 -322 170 -403 224 -31
22 -66 39 -76 39 -11 0 -25 7 -32 15 -7 8 -16 12 -21 9 -5 -3 -8 0 -7 7 2 7
-40 46 -92 86 -52 41 -102 80 -110 87 -9 6 -38 27 -65 46 -28 18 -52 36 -55
40 -3 3 -25 21 -50 40 -25 19 -61 48 -80 65 -53 46 -370 363 -426 426 -166
189 -285 342 -415 539 -140 211 -129 194 -169 270 -18 36 -36 67 -39 70 -18
15 -180 363 -243 520 -53 131 -145 403 -173 505 -33 124 -64 252 -75 305 -5
30 -13 66 -16 80 -9 42 -44 262 -50 315 -3 28 -7 64 -9 80 -27 216 -27 781 0
960 2 17 7 53 10 80 6 51 10 81 20 150 13 95 78 399 106 497 16 60 32 116 34
125 2 10 26 84 54 164 171 505 433 1001 729 1383 48 61 91 116 97 123 5 6 28
33 49 60 41 49 492 502 536 538 121 97 171 136 275 214 66 49 139 107 162 129
23 22 52 43 65 47 32 10 245 122 378 200 137 80 278 148 475 230 17 7 64 25
105 40 41 15 91 33 111 40 65 24 351 105 419 119 14 2 68 14 120 25 100 21
115 24 220 40 88 14 133 20 210 27 36 3 71 7 78 10 75 23 834 24 957 0 11 -2
52 -7 90 -10 39 -4 81 -8 95 -10 14 -2 47 -7 73 -11 27 -4 58 -8 70 -11 12 -2
37 -6 57 -9 20 -3 47 -8 60 -10 91 -18 191 -38 225 -46 22 -5 51 -12 65 -15
14 -2 34 -8 45 -11 11 -4 27 -8 35 -9 22 -4 103 -25 120 -32 8 -3 17 -6 20 -7
20 -6 96 -29 103 -31 4 -1 8 -2 10 -4 1 -1 9 -3 17 -5 54 -11 554 -219 624
-258 23 -13 122 -70 221 -127 99 -57 199 -111 221 -120 23 -8 59 -32 80 -52
33 -32 163 -133 260 -203 72 -52 125 -94 170 -133 80 -70 394 -384 454 -452
30 -35 73 -83 95 -108 22 -25 47 -54 55 -66 8 -12 21 -28 29 -36 22 -22 171
-226 228 -310 89 -133 179 -283 245 -410 16 -30 33 -62 38 -70 12 -18 110
-229 110 -235 0 -2 11 -28 24 -57 75 -168 180 -485 235 -713 12 -49 26 -106
31 -125 5 -19 12 -51 15 -70 3 -19 10 -57 15 -85 17 -89 31 -184 55 -367 2
-18 7 -73 10 -123 4 -49 8 -101 11 -115 6 -33 6 -508 0 -540 -3 -14 -7 -65
-11 -115 -3 -49 -8 -106 -10 -125 -3 -19 -7 -57 -10 -85 -19 -160 -81 -469
-131 -647 -64 -230 -168 -520 -249 -693 -18 -38 -47 -101 -65 -140 -67 -143
-182 -345 -289 -510 -25 -38 -50 -78 -56 -87 -5 -9 -43 -63 -84 -120 -157
-217 -279 -357 -494 -570 -146 -144 -217 -220 -212 -229 5 -7 4 -10 -3 -5 -6
3 -13 2 -17 -4 -3 -5 -21 -17 -40 -26 -19 -8 -59 -37 -89 -64 -112 -98 -228
-182 -402 -293 -276 -175 -304 -194 -298 -200 3 -3 -1 -4 -8 -3 -18 2 -168
-74 -168 -85 0 -19 116 -211 132 -217 4 -2 8 -8 8 -13 0 -9 335 -516 350 -529
3 -3 10 -12 15 -21 17 -29 166 -251 222 -331 l54 -77 47 22 c26 12 54 29 62
37 8 8 40 23 70 33 112 38 378 183 655 357 169 106 205 131 205 143 0 7 37 34
83 60 45 26 116 72 157 103 81 59 217 163 234 179 6 6 40 34 74 63 257 212
596 542 787 766 28 33 55 64 60 70 56 60 319 389 375 469 8 12 41 57 73 99 31
42 57 81 57 87 0 5 4 11 9 13 22 8 321 498 321 525 0 6 4 13 9 15 13 5 273
521 276 548 0 3 3 10 7 15 15 24 88 199 88 212 0 7 5 13 10 13 6 0 10 5 10 11
0 6 25 77 56 158 68 175 150 420 198 591 40 145 103 391 109 435 3 17 8 41 11
55 3 14 8 36 10 50 3 14 12 61 21 105 9 44 20 112 26 150 5 39 12 81 14 95 2
14 7 45 10 70 3 25 7 63 10 85 7 57 14 121 21 190 3 33 7 76 9 95 20 184 27
827 13 1060 -12 182 -23 314 -32 365 -2 17 -7 62 -11 100 -7 76 -14 132 -20
155 -2 8 -7 38 -10 65 -6 46 -24 152 -46 265 -4 25 -11 59 -14 75 -3 17 -8 41
-12 55 -9 36 -10 41 -17 80 -3 19 -11 53 -16 75 -6 22 -13 51 -16 63 -2 13
-12 49 -20 80 -9 32 -24 89 -34 127 -72 274 -215 674 -349 976 -106 239 -332
679 -353 687 -4 2 -8 7 -8 12 0 29 -319 519 -433 665 -4 5 -33 44 -65 86 -55
74 -204 258 -249 309 -12 14 -31 36 -43 50 -129 149 -269 298 -440 465 -123
121 -287 272 -354 327 -12 10 -30 26 -41 36 -11 10 -45 38 -75 63 -86 69 -90
73 -118 96 -15 13 -30 23 -33 23 -3 0 -17 10 -30 21 -32 28 -152 109 -214 144
-27 15 -66 43 -85 60 -65 59 -238 171 -435 280 -286 159 -571 305 -765 392
-206 93 -684 263 -864 308 -34 9 -72 20 -86 25 -14 5 -37 11 -51 14 -14 2 -53
11 -85 20 -85 22 -117 29 -134 32 -8 1 -37 7 -65 14 -106 25 -367 73 -515 94
-19 3 -89 12 -155 20 -117 14 -171 20 -305 31 -36 3 -92 8 -125 11 -68 6 -801
15 -806 10z"/>
<path d="M7197 9074 c-1 -1 -47 -4 -102 -8 -305 -20 -577 -90 -883 -227 -266
-120 -437 -212 -484 -260 -15 -16 -41 -35 -58 -44 -34 -17 -186 -132 -239
-179 -117 -105 -212 -201 -267 -271 -35 -44 -67 -84 -72 -90 -4 -5 -19 -26
-32 -45 -13 -19 -28 -39 -33 -45 -153 -184 -358 -546 -440 -780 -54 -153 -111
-392 -132 -550 -4 -27 -9 -61 -11 -75 -13 -82 -19 -171 -19 -295 1 -299 20
-513 60 -675 9 -36 18 -76 21 -90 6 -29 11 -46 58 -190 51 -159 78 -224 162
-395 65 -131 108 -208 140 -252 13 -17 24 -34 24 -37 0 -12 125 -180 185 -250
305 -353 605 -611 815 -701 25 -11 62 -33 83 -51 21 -17 79 -48 130 -69 51
-21 129 -53 174 -72 89 -37 259 -94 354 -118 93 -24 183 -41 369 -69 151 -23
581 -24 697 -2 12 3 50 7 84 11 35 4 66 8 69 10 3 2 21 6 40 9 139 23 336 83
510 156 63 26 151 63 194 81 44 18 96 47 115 64 20 17 61 42 91 54 76 32 231
136 346 233 163 137 398 380 515 533 55 72 169 241 169 251 0 4 6 15 14 23 8
9 45 77 83 151 153 296 250 592 298 907 42 272 38 672 -9 918 -19 95 -58 259
-65 273 -5 9 -9 19 -9 22 -1 21 -23 96 -42 145 -4 11 -13 36 -20 55 -30 86
-59 155 -132 308 -37 78 -84 167 -103 198 -19 30 -35 59 -35 64 0 6 -4 10 -8
10 -4 0 -16 14 -26 30 -18 32 -162 227 -180 246 -6 6 -27 30 -46 54 -168 210
-413 439 -526 490 -23 11 -58 34 -76 51 -71 65 -351 210 -598 309 -164 65
-454 138 -619 156 -30 3 -63 7 -73 9 -55 11 -451 27 -461 19z"/>
</g>
</svg>
